<svg width="1120" height="820" viewBox="0 0 1120 820" fill="none" xmlns="http://www.w3.org/2000/svg">
  <rect width="1120" height="820" rx="40" fill="#F0F8FF"/>
  <rect x="92" y="84" width="936" height="652" rx="30" fill="#FFFFFF" stroke="#D9E5EA" stroke-width="2"/>
  <rect x="128" y="126" width="864" height="78" rx="18" fill="#0F6F8F"/>
  <circle cx="166" cy="165" r="13" fill="#FFFFFF" fill-opacity="0.9"/>
  <rect x="196" y="153" width="154" height="24" rx="12" fill="#FFFFFF" fill-opacity="0.9"/>
  <rect x="760" y="146" width="188" height="38" rx="19" fill="#17A398"/>
  <rect x="128" y="244" width="304" height="384" rx="24" fill="#F7FAFC" stroke="#D9E5EA"/>
  <rect x="164" y="286" width="188" height="20" rx="10" fill="#10212B"/>
  <rect x="164" y="328" width="218" height="14" rx="7" fill="#B9CBD4"/>
  <rect x="164" y="358" width="184" height="14" rx="7" fill="#D9E5EA"/>
  <rect x="164" y="418" width="226" height="62" rx="16" fill="#FFFFFF" stroke="#D9E5EA"/>
  <rect x="184" y="442" width="110" height="14" rx="7" fill="#0F6F8F"/>
  <rect x="164" y="504" width="226" height="62" rx="16" fill="#FFFFFF" stroke="#D9E5EA"/>
  <rect x="184" y="528" width="142" height="14" rx="7" fill="#17A398"/>
  <rect x="480" y="244" width="512" height="180" rx="24" fill="#FFFFFF" stroke="#D9E5EA"/>
  <rect x="520" y="286" width="170" height="20" rx="10" fill="#10212B"/>
  <rect x="520" y="326" width="390" height="14" rx="7" fill="#B9CBD4"/>
  <rect x="520" y="356" width="300" height="14" rx="7" fill="#D9E5EA"/>
  <rect x="520" y="386" width="144" height="18" rx="9" fill="#F5B94C"/>
  <rect x="480" y="456" width="238" height="172" rx="24" fill="#F7FAFC" stroke="#D9E5EA"/>
  <rect x="520" y="502" width="82" height="82" rx="22" fill="#0F6F8F"/>
  <path d="M541 544L557 560L583 524" stroke="white" stroke-width="10" stroke-linecap="round" stroke-linejoin="round"/>
  <rect x="760" y="456" width="232" height="172" rx="24" fill="#10212B"/>
  <rect x="800" y="502" width="110" height="16" rx="8" fill="#FFFFFF"/>
  <rect x="800" y="536" width="150" height="12" rx="6" fill="#D9E5EA"/>
  <rect x="800" y="564" width="118" height="12" rx="6" fill="#60707A"/>
  <circle cx="940" cy="606" r="24" fill="#17A398"/>
</svg>
